<svg xmlns="http://www.w3.org/2000/svg" viewBox="0 0 197.48 50.32"><defs><style>.a{fill:#1a73e8;}</style></defs><path class="a" d="M28,1V37.45H22.84l-.32-4.07A10.37,10.37,0,0,1,13.41,38C5.8,38,0,33.06,0,24.56c0-8.77,5.7-13.42,13.31-13.42,3.19,0,7.5,1.57,9.21,4.6V1ZM5.48,24.56A8,8,0,0,0,13.79,33a8.14,8.14,0,0,0,8.35-8.4,8.15,8.15,0,0,0-8.35-8.35A7.92,7.92,0,0,0,5.48,24.56Z"/><path class="a" d="M112.85,1V37.45h-5.49V1Z"/><path class="a" d="M124.12,1V37.45h-5.48V1Z"/><path class="a" d="M178.59,11.67l6.28,20.24,6.49-20.24h6.12l-9.2,25.88h-6.39L178.8,29l-2.56-9-2.6,9-3.09,8.56h-6.39L154.9,11.67h6.17l6.5,20.24,6.28-20.24Z"/><path class="a" d="M44.78,38A13.38,13.38,0,1,1,58.16,24.57,13.4,13.4,0,0,1,44.78,38Zm0-21.48a8.1,8.1,0,1,0,8.11,8.1A8.1,8.1,0,0,0,44.78,16.47Z"/><path class="a" d="M90.2,38a13.38,13.38,0,1,1,13.38-13.38A13.39,13.39,0,0,1,90.2,38Zm0-21.48a8.1,8.1,0,1,0,8.11,8.1A8.1,8.1,0,0,0,90.2,16.47Z"/><path class="a" d="M141.29,38a13.38,13.38,0,1,1,13.37-13.38A13.39,13.39,0,0,1,141.29,38Zm0-21.48a8.1,8.1,0,1,0,8.1,8.1A8.11,8.11,0,0,0,141.29,16.47Z"/><path class="a" d="M64.32,30.72v9.84c0,3.44-1.76,5.06-4.26,5.06a7.2,7.2,0,0,1-4-1.36l-2.12,4a11.66,11.66,0,0,0,6.44,2c5.37,0,9.47-3.34,9.47-9.76V37.05h0V28.46A7,7,0,0,0,64.32,30.72Z"/><path class="a" d="M73.82,0c-5.38,0-9.48,3.34-9.48,9.76v3.5h0v9.63h5.56V9.76c0-3.45,1.76-5.06,4.26-5.06a7.23,7.23,0,0,1,4,1.35l2.13-4A11.71,11.71,0,0,0,73.82,0Z"/><rect class="a" x="54.58" y="22.1" width="26.32" height="4.84"/></svg>